# xmcd
#
# Track frame offsets:
# 225
# 14613
# 34212
# 53574
# 73062
# 91421
# 108150
# 122608
# 141510
# 157849
# 175066
# 192213
# 209876
# 221937
# 237259
#
# Disc length: 3425 seconds
#
#
# Revision: 1
# Processed by: cddbd v1.5.1PL2 Copyright (c) Steve Scherf et al.
# Submitted via: FreeRIP 2.944 
#
DISCID=de0d5e0f
DTITLE=Cleiton e Camargo - Agenda Rabiscada
DYEAR=1998
DGENRE=Sertanejo
TTITLE0=O Jogo Das Paixões
TTITLE1=Agenda Rabiscada
TTITLE2=Anjo Da Madrugada
TTITLE3=Na Hora de Amar (insensível)
TTITLE4=Meu Coração Está Limpo
TTITLE5=Tem Que Ser Você
TTITLE6=Traz Ela de Volta
TTITLE7=Foi Deus Quem Mandou a Chuva
TTITLE8=Tempero de Amor
TTITLE9=Se Eu Quiser um Grande Amor
TTITLE10=Fato Consumado
TTITLE11=Chuva de Amor
TTITLE12=Aonde Tem Rodeio
TTITLE13=Amor e Desejo
TTITLE14=Não Quero Te Perder
EXTD=
EXTT0=
EXTT1=
EXTT2=
EXTT3=
EXTT4=
EXTT5=
EXTT6=
EXTT7=
EXTT8=
EXTT9=
EXTT10=
EXTT11=
EXTT12=
EXTT13=
EXTT14=
PLAYORDER=
